<?xml version="1.0" encoding="UTF-8"?>
<svg width="32px" height="32px" viewBox="0 0 32 32" version="1.1" xmlns="http://www.w3.org/2000/svg" xmlns:xlink="http://www.w3.org/1999/xlink">
    <!-- Generator: Sketch 60.1 (88133) - https://sketch.com -->
    <title>ic/fill/booking</title>
    <desc>Created with Sketch.</desc>
    <g id="ic/fill/booking" stroke="none" stroke-width="1" fill="none" fill-rule="evenodd">
        <circle id="Oval" fill="#FB6C37" cx="16" cy="16" r="15"></circle>
        <path d="M14.338,5.1217 C18.735,4.4787 22.72,6.4447 25,9.6947 L25,9.6947 L25,8.9997 C25,8.4467 25.447,7.9997 26,7.9997 C26.553,7.9997 27,8.4467 27,8.9997 L27,8.9997 L27,11.9997 C27,12.5527 26.553,12.9997 26,12.9997 L26,12.9997 L23,12.9997 C22.447,12.9997 22,12.5527 22,11.9997 C22,11.4467 22.447,10.9997 23,10.9997 L23,10.9997 L23.466,10.9997 C21.796,8.5087 18.922,6.8917 15.679,7.0057 C11.014,7.1687 7.143,11.0627 7.004,15.7287 C6.854,20.8137 10.947,24.9997 16,24.9997 C20.358,24.9997 24,21.8847 24.822,17.7647 C24.913,17.3117 25.33,16.9997 25.791,16.9997 C26.422,16.9997 26.899,17.5817 26.774,18.2007 C25.755,23.2207 21.321,26.9997 16,26.9997 C9.495,26.9997 4.309,21.3537 5.075,14.6927 C5.636,9.8257 9.49,5.8317 14.338,5.1217 Z M16,10.9997 C16.553,10.9997 17,11.4467 17,11.9997 L17,11.9997 L17,14.9997 L20,14.9997 C20.553,14.9997 21,15.4467 21,15.9997 C21,16.5527 20.553,16.9997 20,16.9997 L20,16.9997 L16,16.9997 C15.447,16.9997 15,16.5527 15,15.9997 L15,15.9997 L15,11.9997 C15,11.4467 15.447,10.9997 16,10.9997 Z" id="Combined-Shape" fill="#FFFFFF"></path>
    </g>
</svg>