<?xml version="1.0" encoding="UTF-8"?>
<svg width="32px" height="32px" viewBox="0 0 32 32" version="1.1" xmlns="http://www.w3.org/2000/svg" xmlns:xlink="http://www.w3.org/1999/xlink">
    <!-- Generator: Sketch 60.1 (88133) - https://sketch.com -->
    <title>ic/fill/noti</title>
    <desc>Created with Sketch.</desc>
    <g id="ic/fill/noti" stroke="none" stroke-width="1" fill="none" fill-rule="evenodd">
        <path d="M18,28 C18,29.104 17.104,30 16,30 C14.896,30 14,29.104 14,28 L18,28 Z M16,2 C16.5522847,2 17,2.44771525 17,3 L17,3 L17.0009626,4.04558288 C22.0531483,4.54780073 26,8.81098488 26,13.9961 L26,13.9961 L26,24 L27,24 C27.5522847,24 28,24.4477153 28,25 C28,25.5522847 27.5522847,26 27,26 L5,26 C4.44771525,26 4,25.5522847 4,25 C4,24.4477153 4.44771525,24 5,24 L6,24 L6,13.9961 C6,8.81064324 9.94737183,4.54723894 15.000036,4.04548366 L15,3 C15,2.44771525 15.4477153,2 16,2 Z" id="Combined-Shape" fill="#1F1F1F"></path>
    </g>
</svg>