<?xml version="1.0" encoding="UTF-8"?>
<svg width="32px" height="32px" viewBox="0 0 32 32" version="1.1" xmlns="http://www.w3.org/2000/svg" xmlns:xlink="http://www.w3.org/1999/xlink">
    <!-- Generator: Sketch 60.1 (88133) - https://sketch.com -->
    <title>ic/stroke/booking</title>
    <desc>Created with Sketch.</desc>
    <g id="ic/stroke/booking" stroke="none" stroke-width="1" fill="none" fill-rule="evenodd">
        <path d="M13.793,2.1694 C19.803,1.2494 25.21,4.1664 28,8.8314 L28,8.8314 L28,6.9994 C28,6.4464 28.448,5.9994 29,5.9994 C29.552,5.9994 30,6.4464 30,6.9994 L30,6.9994 L30,10.9994 C30,11.5524 29.552,11.9994 29,11.9994 L29,11.9994 L25,11.9994 C24.448,11.9994 24,11.5524 24,10.9994 C24,10.4464 24.448,9.9994 25,9.9994 L25,9.9994 L26.369,9.9994 C24,5.9174 19.31,3.3454 14.108,4.1454 C9.055,4.9234 4.973,8.9684 4.16,14.0164 C2.726,22.9214 11.167,30.4194 20.244,27.2664 C24.683,25.7244 27.628,21.5464 27.967,16.8984 C28.004,16.3874 28.446,15.9994 28.959,15.9994 C29.548,15.9994 30.003,16.5064 29.958,17.0934 C29.532,22.6754 25.867,27.6324 20.469,29.3084 C10.013,32.5534 0.493,23.8884 2.199,13.6034 C3.191,7.6204 7.798,3.0854 13.793,2.1694 Z M16,9.9994 C16.552,9.9994 17,10.4464 17,10.9994 L17,10.9994 L17,14.9994 L21,14.9994 C21.552,14.9994 22,15.4464 22,15.9994 C22,16.5524 21.552,16.9994 21,16.9994 L21,16.9994 L16,16.9994 C15.448,16.9994 15,16.5524 15,15.9994 L15,15.9994 L15,10.9994 C15,10.4464 15.448,9.9994 16,9.9994 Z" id="Combined-Shape" fill="#8E8E93"></path>
    </g>
</svg>