<?xml version="1.0" encoding="UTF-8"?>
<svg width="32px" height="32px" viewBox="0 0 32 32" version="1.1" xmlns="http://www.w3.org/2000/svg" xmlns:xlink="http://www.w3.org/1999/xlink">
    <!-- Generator: Sketch 60.1 (88133) - https://sketch.com -->
    <title>ic/stroke/marker</title>
    <desc>Created with Sketch.</desc>
    <g id="ic/stroke/marker" stroke="none" stroke-width="1" fill="none" fill-rule="evenodd">
        <path d="M16,2 C23.17925,2 29,7.75678571 29,14.8571429 C29,18.5784562 27.392924,21.9214806 24.8375869,24.2686277 L24.5789167,24.5 L17.3163578,30.8491923 C16.6068596,31.4694613 15.5685563,31.5059477 14.8203752,30.9586515 L14.6836422,30.8491923 L7.42108333,24.5 C4.716,22.1439286 3,18.7025 3,14.8571429 C3,7.75678571 8.82075,2 16,2 Z M16,4 C9.92040276,4 5,8.8663324 5,14.8571429 C5,17.8945795 6.27710355,20.7258492 8.48796469,22.7703745 L8.73744111,22.9942768 L16,29.3434692 L23.2653453,22.9918454 C25.6265443,20.9352901 27,18.0070772 27,14.8571429 C27,8.8663324 22.0795972,4 16,4 Z M16,10 C18.7614237,10 21,12.2385763 21,15 C21,17.7614237 18.7614237,20 16,20 C13.2385763,20 11,17.7614237 11,15 C11,12.2385763 13.2385763,10 16,10 Z M16,12 C14.3431458,12 13,13.3431458 13,15 C13,16.6568542 14.3431458,18 16,18 C17.6568542,18 19,16.6568542 19,15 C19,13.3431458 17.6568542,12 16,12 Z" id="Combined-Shape" fill="#8E8E93"></path>
    </g>
</svg>