<?xml version="1.0" encoding="UTF-8"?>
<svg width="32px" height="32px" viewBox="0 0 32 32" version="1.1" xmlns="http://www.w3.org/2000/svg" xmlns:xlink="http://www.w3.org/1999/xlink">
    <!-- Generator: Sketch 60.1 (88133) - https://sketch.com -->
    <title>ic/stroke/noti</title>
    <desc>Created with Sketch.</desc>
    <g id="ic/stroke/noti" stroke="none" stroke-width="1" fill="none" fill-rule="evenodd">
        <path d="M18,28 C18,29.104 17.104,30 16,30 C14.896,30 14,29.104 14,28 L14,28 Z M16,2.0001 C16.5522847,2.0001 17,2.44781525 17,3.0001 L17,3.0001 L17,4.0471 C22.054,4.5491 26,8.8101 26,13.9961 L26,13.9961 L26,24.0001 L27,24.0001 C27.5522847,24.0001 28,24.4478153 28,25.0001 C28,25.5523847 27.5522847,26.0001 27,26.0001 L27,26.0001 L5,26.0001 C4.44771525,26.0001 4,25.5523847 4,25.0001 C4,24.4478153 4.44771525,24.0001 5,24.0001 L5,24.0001 L6,24.0001 L6,13.9961 C6,8.8101 9.947,4.5491 15,4.0471 L15,4.0471 L15,3.0001 C15,2.44781525 15.4477153,2.0001 16,2.0001 Z M16,5.9961 C11.589,5.9961 8,9.5851 8,13.9961 L8,13.9961 L8,23.9961 L24,23.9961 L24,13.9961 C24,9.5851 20.411,5.9961 16,5.9961 Z" id="Combined-Shape" fill="#1F1F1F"></path>
    </g>
</svg>