<?xml version="1.0" encoding="UTF-8"?>
<svg width="32px" height="32px" viewBox="0 0 32 32" version="1.1" xmlns="http://www.w3.org/2000/svg" xmlns:xlink="http://www.w3.org/1999/xlink">
    <!-- Generator: Sketch 60.1 (88133) - https://sketch.com -->
    <title>ic/stroke/plug</title>
    <desc>Created with Sketch.</desc>
    <g id="ic/stroke/plug" stroke="none" stroke-width="1" fill="none" fill-rule="evenodd">
        <g id="v3" transform="translate(4.000000, 1.000000)" fill="#8E8E93">
            <path d="M23,6 C23.5522847,6 24,6.44771525 24,7 C24,7.55228475 23.5522847,8 23,8 L23,8 L22,8 L22,20 C22,21.104 21.104,22 20,22 L20,22 L18,22 C17.447,22 17,22.447 17,23 L17,23 L17,25 L13,25 L13,29 C13,29.5522847 12.5522847,30 12,30 C11.4477153,30 11,29.5522847 11,29 L11,29 L11,25 L7,25 L7,23 C7,22.447 6.553,22 6,22 L6,22 L4,22 C2.896,22 2,21.104 2,20 L2,20 L2,8 L1,8 C0.44771525,8 6.76353751e-17,7.55228475 0,7 C-6.76353751e-17,6.44771525 0.44771525,6 1,6 L1,6 Z M20,8 L4,8 L4,20 L6,20 C7.654,20 9,21.346 9,23 L9,23 L15,23 C15,21.346 16.346,20 18,20 L18,20 L20,20 L20,8 Z M7,0 C7.553,0 8,0.447 8,1 L8,1 L8,4 L6,4 L6,1 C6,0.447 6.447,0 7,0 Z M17,0 C17.553,0 18,0.447 18,1 L18,1 L18,4 L16,4 L16,1 C16,0.447 16.447,0 17,0 Z" id="Combined-Shape"></path>
        </g>
    </g>
</svg>