<?xml version="1.0" encoding="UTF-8"?>
<svg width="32px" height="32px" viewBox="0 0 32 32" version="1.1" xmlns="http://www.w3.org/2000/svg" xmlns:xlink="http://www.w3.org/1999/xlink">
    <!-- Generator: Sketch 60.1 (88133) - https://sketch.com -->
    <title>ic/_/arrow</title>
    <desc>Created with Sketch.</desc>
    <g id="ic/_/arrow" stroke="none" stroke-width="1" fill="none" fill-rule="evenodd">
        <path d="M11.2931,8.707 C11.6835653,8.31653468 12.3166347,8.31653468 12.7071,8.707 C13.0975653,9.09746532 13.0975653,9.73053468 12.7071,10.121 L12.7071,10.121 L7.83221356,14.994151 L26.9893002,14.9822597 L26.9893002,14.9822597 L27.1001017,14.9881909 C27.6065624,15.0430717 28.0008,15.4720463 28.0008,15.9931 C28.0008,16.5518356 27.5480357,17.0048756 26.9893002,17.0052157 L26.9893002,17.0052157 L7.84421356,17.016151 L12.697,21.8691 C13.0574295,22.2295295 13.0851549,22.7966749 12.780176,23.1889069 L12.697,23.2831 C12.3065347,23.6735653 11.6734653,23.6735653 11.283,23.2831 L11.283,23.2831 L5.01721356,17.018151 L5.0008,17.0186 L5.00021356,17.001151 L4.70710678,16.7072068 C4.37666315,16.3767631 4.32582567,15.8725945 4.55459434,15.4886971 L4.62401817,15.3871006 L4.62401817,15.3871006 L4.70720678,15.2928932 L5.00021356,14.998151 L5.0008,14.9966 L5.00221356,14.996151 Z" id="Combined-Shape" fill="#8E8E93"></path>
    </g>
</svg>