<?xml version="1.0" encoding="UTF-8"?>
<svg width="32px" height="32px" viewBox="0 0 32 32" version="1.1" xmlns="http://www.w3.org/2000/svg" xmlns:xlink="http://www.w3.org/1999/xlink">
    <!-- Generator: Sketch 60.1 (88133) - https://sketch.com -->
    <title>ic/check_single</title>
    <desc>Created with Sketch.</desc>
    <g id="ic/check_single" stroke="none" stroke-width="1" fill="none" fill-rule="evenodd">
        <path d="M22.9741158,10.6090854 C23.3660736,10.3043197 23.9328225,10.3320257 24.293,10.6922033 C24.6835453,11.0827485 24.6837667,11.7158792 24.2934946,12.1066975 L24.2934946,12.1066975 L23.993151,12.406559 L24.0002,12.4144 L14.0002,22.4144 L13.7071068,22.7068932 C13.3165825,23.0974175 12.6834175,23.0974175 12.2928932,22.7068932 L12.2928932,22.7068932 L6.707,17.121 C6.31653468,16.7305347 6.31653468,16.0974653 6.707,15.707 C7.09746532,15.3165347 7.73053468,15.3165347 8.121,15.707 L8.121,15.707 L12.999151,20.585559 L22.8794946,10.6926975 C22.8795769,10.6926151 22.8796592,10.6925327 22.8797416,10.6924504 Z" id="Combined-Shape" fill="#8E8E93"></path>
    </g>
</svg>