<?xml version="1.0" encoding="UTF-8"?>
<svg width="32px" height="32px" viewBox="0 0 32 32" version="1.1" xmlns="http://www.w3.org/2000/svg" xmlns:xlink="http://www.w3.org/1999/xlink">
    <!-- Generator: Sketch 60.1 (88133) - https://sketch.com -->
    <title>ic/_/close</title>
    <desc>Created with Sketch.</desc>
    <g id="ic/_/close" stroke="none" stroke-width="1" fill="none" fill-rule="evenodd">
        <g id="Group-5" transform="translate(5.000000, 5.000000)" fill="#8E8E93">
            <path d="M2.17934912,0.726442927 L11,9.54699322 L19.8206509,0.726442927 C20.221858,0.325235831 20.8723432,0.325235831 21.2735503,0.726442927 C21.6747574,1.12765002 21.6747574,1.77813525 21.2735503,2.17934234 L12.453,10.9999932 L21.2735503,19.8206441 C21.6747574,20.2218512 21.6747574,20.8723364 21.2735503,21.2735435 C20.8723432,21.6747506 20.221858,21.6747506 19.8206509,21.2735435 L11,12.4529932 L2.17934912,21.2735435 C1.77814203,21.6747506 1.1276568,21.6747506 0.726449708,21.2735435 C0.325242613,20.8723364 0.325242613,20.2218512 0.726449708,19.8206441 L9.547,10.9999932 L0.726449708,2.17934234 C0.325242613,1.77813525 0.325242613,1.12765002 0.726449708,0.726442927 C1.1276568,0.325235831 1.77814203,0.325235831 2.17934912,0.726442927 Z" id="Combined-Shape"></path>
        </g>
    </g>
</svg>