<?xml version="1.0" encoding="UTF-8"?>
<svg width="32px" height="32px" viewBox="0 0 32 32" version="1.1" xmlns="http://www.w3.org/2000/svg" xmlns:xlink="http://www.w3.org/1999/xlink">
    <!-- Generator: Sketch 60.1 (88133) - https://sketch.com -->
    <title>ic/location</title>
    <desc>Created with Sketch.</desc>
    <g id="ic/location" stroke="none" stroke-width="1" fill="none" fill-rule="evenodd">
        <path d="M16,10 C12.687,10 10,12.687 10,16 C10,19.313 12.687,22 16,22 C19.313,22 22,19.313 22,16 C22,12.687 19.313,10 16,10" id="Fill-2" fill="#1F1F1F"></path>
        <path d="M16,26 C10.486,26 6,21.514 6,16 C6,10.486 10.486,6 16,6 C21.514,6 26,10.486 26,16 C26,21.514 21.514,26 16,26 L16,26 Z M27.949,15 C27.468,9.172 22.828,4.532 17,4.051 L17,3 C17,2.44771525 16.5522847,2 16,2 C15.4477153,2 15,2.44771525 15,3 L15,4.051 L15,4.051 C9.172,4.532 4.532,9.172 4.051,15 L3,15 C2.44771525,15 2,15.4477153 2,16 C2,16.5522847 2.44771525,17 3,17 L4.051,17 L4.051,17 C4.532,22.828 9.172,27.468 15,27.949 L15,29 C15,29.5522847 15.4477153,30 16,30 C16.5522847,30 17,29.5522847 17,29 L17,27.949 L17,27.949 C22.828,27.468 27.468,22.828 27.949,17 L29,17 C29.5522847,17 30,16.5522847 30,16 C30,15.4477153 29.5522847,15 29,15 L27.949,15 L27.949,15 Z" id="Fill-4" fill="#8E8E93"></path>
    </g>
</svg>