<?xml version="1.0" encoding="UTF-8"?>
<svg width="32px" height="32px" viewBox="0 0 32 32" version="1.1" xmlns="http://www.w3.org/2000/svg" xmlns:xlink="http://www.w3.org/1999/xlink">
    <!-- Generator: Sketch 60.1 (88133) - https://sketch.com -->
    <title>ic/_more</title>
    <desc>Created with Sketch.</desc>
    <g id="ic/_more" stroke="none" stroke-width="1" fill="none" fill-rule="evenodd">
        <path d="M16,22 C16.828,22 17.5,22.672 17.5,23.5 C17.5,24.328 16.828,25 16,25 C15.172,25 14.5,24.328 14.5,23.5 C14.5,22.672 15.172,22 16,22 Z M16,14 C16.828,14 17.5,14.672 17.5,15.5 C17.5,16.328 16.828,17 16,17 C15.172,17 14.5,16.328 14.5,15.5 C14.5,14.672 15.172,14 16,14 Z M16,6 C16.828,6 17.5,6.672 17.5,7.5 C17.5,8.328 16.828,9 16,9 C15.172,9 14.5,8.328 14.5,7.5 C14.5,6.672 15.172,6 16,6 Z" id="Combined-Shape" fill="#8E8E93"></path>
    </g>
</svg>