<?xml version="1.0" encoding="UTF-8"?>
<svg width="32px" height="32px" viewBox="0 0 32 32" version="1.1" xmlns="http://www.w3.org/2000/svg" xmlns:xlink="http://www.w3.org/1999/xlink">
    <!-- Generator: Sketch 60.1 (88133) - https://sketch.com -->
    <title>ic/shake_hand</title>
    <desc>Created with Sketch.</desc>
    <g id="ic/shake_hand" stroke="none" stroke-width="1" fill="none" fill-rule="evenodd">
        <path d="M18.4841901,7.1583809 C18.5966547,6.60078872 19.144399,6.23727558 19.7088047,6.35331226 C20.2732105,6.46421457 20.6387205,7.00537678 20.5262558,7.56091523 C20.133671,9.49657135 20.7438957,11.4866518 22.1590754,12.8821725 L22.1590754,12.8821725 L24.4125329,15.1032994 C27.862489,18.5063574 27.862489,24.044285 24.4125329,27.447343 C22.6870342,29.1498989 20.4200393,30.00015 18.1530443,30.00015 C15.8870907,30.00015 13.621137,29.1498989 11.894597,27.447343 L11.894597,27.447343 L3.30459165,18.9766654 C2.89846945,18.5761848 2.89846945,17.926174 3.30459165,17.5246666 C3.7117552,17.124186 4.37092278,17.124186 4.77808632,17.5246666 L4.77808632,17.5246666 L13.3680916,25.9953442 C16.0068446,28.5953874 20.2992439,28.5974411 22.9400796,25.9953442 C25.5777913,23.3932474 25.5777913,19.1573951 22.9400796,16.5552982 L22.9400796,16.5552982 L20.686622,14.3341713 C18.7768063,12.4508858 17.9541485,9.76869276 18.4841901,7.1583809 Z M8.58105631,5.30128059 C8.98717851,4.89977314 9.64634609,4.89977314 10.0535096,5.30128059 L10.0535096,5.30128059 L16.751402,11.9051026 C17.4813806,12.6239139 17.5751012,13.7360177 16.9742486,14.5493013 C16.0641183,15.783603 14.7499485,18.3394905 16.1651282,21.5977594 C16.3921401,22.1183842 16.1463841,22.7211588 15.6184252,22.9450172 C15.4851338,23.0025221 15.3455944,23.0281939 15.2081376,23.0281939 C14.8040981,23.0281939 14.419844,22.7961205 14.2511471,22.4059087 C13.4524401,20.5678055 13.3493475,18.895029 13.5649047,17.476917 L13.5649047,17.476917 L4.16369632,8.20630508 C3.75653278,7.80479763 3.75653278,7.15478685 4.16369632,6.75430627 C4.56981852,6.35279882 5.2289861,6.35279882 5.63614965,6.75430627 L5.63614965,6.75430627 L14.2167829,15.2167689 C14.5739622,14.3942434 14.9863324,13.7534745 15.2904034,13.3416983 L15.2904034,13.3416983 L8.58105631,6.7532794 C8.17389276,6.35177195 8.17389276,5.70176116 8.58105631,5.30128059 Z M3.42736552,11.8365075 C3.83348773,11.435 4.49265531,11.435 4.89981885,11.8365075 L4.89981885,11.8365075 L12.2631268,19.0975284 C12.6702904,19.4990358 12.6702904,20.1480198 12.2631268,20.5495272 C12.0600657,20.7497675 11.793483,20.8504011 11.5269002,20.8504011 C11.2603174,20.8504011 10.9937346,20.7497675 10.7906735,20.5495272 L10.7906735,20.5495272 L3.42736552,13.2885063 C3.02020198,12.8869988 3.02020198,12.2369881 3.42736552,11.8365075 Z" id="Combined-Shape" fill="#FB6C37"></path>
        <path d="M21.927242,4.89755073 C23.6013836,5.02809246 25.2623349,5.50304217 26.731521,6.2705535 C27.218544,6.52515617 27.3869727,7.09083701 27.1079492,7.53430857 C26.9202424,7.83242515 26.5783116,8 26.2262346,8 C26.0547619,8 25.8822746,7.9601894 25.7229775,7.87779072 C24.5084639,7.24267278 23.1356678,6.85012176 21.7547547,6.74272572 C21.1956929,6.69921181 20.7827379,6.25018528 20.8304256,5.74190577 C20.8770986,5.2317746 21.3529607,4.84385271 21.927242,4.89755073 Z M22.195612,2.00452373 C24.3283668,2.17117275 26.4448876,2.77573837 28.3158677,3.75526428 C28.8028907,4.00894112 28.9713194,4.57554779 28.6912812,5.01809352 C28.5045891,5.3162101 28.1626583,5.48378495 27.8105813,5.48378495 C27.6391086,5.48378495 27.4656067,5.44397435 27.3073242,5.36064984 C25.6910166,4.51536898 23.8626511,3.99320205 22.0231246,3.84877289 C21.4640628,3.80618481 21.0511079,3.35715828 21.0987956,2.84795294 C21.1454686,2.3387476 21.6182868,1.9536032 22.195612,2.00452373 Z" id="Combined-Shape" fill="#FFB396" transform="translate(24.826678, 5.000000) rotate(-308.000000) translate(-24.826678, -5.000000) "></path>
    </g>
</svg>