<?xml version="1.0" encoding="UTF-8"?>
<svg width="32px" height="32px" viewBox="0 0 32 32" version="1.1" xmlns="http://www.w3.org/2000/svg" xmlns:xlink="http://www.w3.org/1999/xlink">
    <!-- Generator: Sketch 60.1 (88133) - https://sketch.com -->
    <title>ic/_/share</title>
    <desc>Created with Sketch.</desc>
    <g id="ic/_/share" stroke="none" stroke-width="1" fill="none" fill-rule="evenodd">
        <g id="v3" transform="translate(5.000000, 4.000000)" fill="#8E8E93">
            <path d="M20.967241,0.748712824 C21.190378,0.666505426 21.4355074,0.666505426 21.6586445,0.748712824 C22.1768778,0.93963862 22.442213,1.51452568 22.2512872,2.03275901 L22.2512872,2.03275901 L14.8873433,22.0208446 C14.8076001,22.2372931 14.6554797,22.4195176 14.456757,22.5366425 C13.9809639,22.8170696 13.3679263,22.6586941 13.0874992,22.182901 L13.0874992,22.182901 L8.5373,14.4627 L0.817098992,9.91250079 C0.618376334,9.7953759 0.466255931,9.61315137 0.386512698,9.39670287 C0.195586901,8.87846954 0.460922084,8.30358248 0.979155414,8.11265668 L0.979155414,8.11265668 Z M19.6253,3.3747 L3.6493,9.2607 L9.10758536,12.4770573 L12.1574,9.4286 C12.5478653,9.03813468 13.1809347,9.03813468 13.5714,9.4286 C13.9618653,9.81906532 13.9618653,10.4521347 13.5714,10.8426 L10.5215854,13.8910573 L13.7393,19.3507 L19.6253,3.3747 Z" id="Combined-Shape"></path>
        </g>
    </g>
</svg>