<?xml version="1.0" encoding="UTF-8"?>
<svg width="32px" height="32px" viewBox="0 0 32 32" version="1.1" xmlns="http://www.w3.org/2000/svg" xmlns:xlink="http://www.w3.org/1999/xlink">
    <!-- Generator: Sketch 60.1 (88133) - https://sketch.com -->
    <title>ic/write</title>
    <desc>Created with Sketch.</desc>
    <g id="ic/write" stroke="none" stroke-width="1" fill="none" fill-rule="evenodd">
        <g id="Group" transform="translate(4.000000, 5.000500)" fill="#FFFFFF">
            <path d="M17,5.5067062e-14 C18.086,5.5067062e-14 19.172,0.414 20,1.242 C21.6035484,2.84458065 21.6552758,5.41365453 20.1551821,7.07858957 L20,7.242 L7.999,19.242 L23,19.2422 C23.5128358,19.2422 23.9355072,19.6282402 23.9932723,20.1255789 L24,20.2422 C24,20.7550358 23.6139598,21.1777072 23.1166211,21.2354723 L23,21.2422 L1,21.242 C0.487164161,21.242 0.0644928393,20.8559598 0.00672773133,20.3586211 L-8.52651283e-14,20.242 L-8.52651283e-14,15.242 L14,1.242 C14.828,0.414 15.914,5.5067062e-14 17,5.5067062e-14 Z M12.681,5.388 L2,16.07 L2,19.242 L5.172,19.242 L15.853,8.56 L12.681,5.388 Z M17,2 C16.4675556,2 15.9635556,2.18330864 15.5603402,2.52183265 L15.414,2.656 L14.096,3.974 L17.268,7.146 L18.586,5.828 C19.01,5.404 19.242,4.842 19.242,4.242 C19.242,3.643 19.01,3.08 18.586,2.656 C18.162,2.232 17.599,2 17,2 Z" id="Combined-Shape"></path>
        </g>
    </g>
</svg>